<svg width="96" height="96" xmlns="http://www.w3.org/2000/svg" xmlns:xlink="http://www.w3.org/1999/xlink" xml:space="preserve" overflow="hidden"><g transform="translate(-592 -312)"><path d="M675 337C675 339.761 672.761 342 670 342 667.239 342 665 339.761 665 337 665 334.239 667.239 332 670 332 672.761 332 675 334.239 675 337Z" fill="#FFC000"/><path d="M655 337C655 339.761 652.761 342 650 342 647.239 342 645 339.761 645 337 645 334.239 647.239 332 650 332 652.761 332 655 334.239 655 337Z" fill="#FFC000"/><path d="M635 337C635 339.761 632.761 342 630 342 627.239 342 625 339.761 625 337 625 334.239 627.239 332 630 332 632.761 332 635 334.239 635 337Z" fill="#FFC000"/><path d="M615 337C615 339.761 612.761 342 610 342 607.239 342 605 339.761 605 337 605 334.239 607.239 332 610 332 612.761 332 615 334.239 615 337Z" fill="#FFC000"/><path d="M680.58 331.51C679.541 331.135 678.395 331.673 678.02 332.712 678.013 332.731 678.006 332.751 678 332.77L674.27 343.77C672.892 343.306 671.453 343.047 670 343 668.529 343.044 667.073 343.307 665.68 343.78L662 332.77C661.584 331.688 660.369 331.147 659.286 331.564 658.732 331.777 658.293 332.216 658.08 332.77L654.35 343.77C652.947 343.297 651.48 343.038 650 343 648.53 343.045 647.075 343.305 645.68 343.77L642 332.77C641.584 331.688 640.369 331.147 639.286 331.564 638.732 331.777 638.293 332.216 638.08 332.77L634.36 343.77C632.952 343.302 631.483 343.043 630 343 628.529 343.044 627.073 343.307 625.68 343.78L622 332.77C621.584 331.688 620.369 331.147 619.286 331.564 618.732 331.777 618.293 332.216 618.08 332.77L614.35 343.77C612.946 343.302 611.48 343.042 610 343 608.529 343.044 607.073 343.307 605.68 343.78L602 332.77C601.647 331.723 600.512 331.161 599.465 331.515 598.418 331.868 597.857 333.003 598.21 334.05L603.15 348.64C603.419 349.437 604.159 349.981 605 350L605 356 602 371 605 371 605 388 609 388 609 371 611 371 611 388 615 388 615 371 618 371 615 356 615 350C615.856 349.998 616.616 349.451 616.89 348.64L620 339.46 623.11 348.64C623.384 349.451 624.144 349.998 625 350L625 388 629 388 629 365 631 365 631 388 635 388 635 350C635.856 349.998 636.616 349.451 636.89 348.64L640 339.46 643.11 348.64C643.384 349.451 644.144 349.998 645 350L645 356 642 371 645 371 645 388 649 388 649 371 651 371 651 388 655 388 655 371 658 371 655 356 655 350C655.856 349.998 656.616 349.451 656.89 348.64L660 339.46 663.11 348.64C663.384 349.451 664.144 349.998 665 350L665 388 669 388 669 365 671 365 671 388 675 388 675 350C675.856 349.998 676.616 349.451 676.89 348.64L681.83 334.05C682.187 333.005 681.629 331.868 680.583 331.511 680.582 331.511 680.581 331.51 680.58 331.51Z" fill="#FFC000"/></g></svg>